<?xml version="1.0" encoding="utf-8" ?>
<svg baseProfile="tiny" height="100%" version="1.2" width="100%" xmlns="http://www.w3.org/2000/svg" xmlns:ev="http://www.w3.org/2001/xml-events" xmlns:xlink="http://www.w3.org/1999/xlink"><defs /><path d="M 360,28 359,29 353,29 352,30 347,30 346,31 342,31 341,32 336,32 335,33 331,33 330,34 326,34 325,35 322,35 321,36 318,36 317,37 314,37 313,38 310,38 309,39 306,39 305,40 303,40 302,41 299,41 298,42 296,42 295,43 292,43 291,44 289,44 288,45 286,45 285,46 283,46 282,47 280,47 279,48 277,48 276,49 275,49 274,50 272,50 271,51 269,51 268,52 267,52 266,53 264,53 263,54 262,54 261,55 259,55 258,56 257,56 256,57 254,57 253,58 252,58 251,59 249,59 248,60 246,60 245,61 243,61 242,62 241,62 240,63 238,63 237,64 235,64 234,65 231,65 230,66 227,66 226,67 223,67 222,68 214,68 213,69 204,69 203,68 197,68 196,67 193,67 192,66 188,66 187,65 183,65 182,64 179,64 178,63 174,63 173,62 170,62 169,61 163,61 162,60 150,60 149,61 144,61 143,62 137,62 136,63 133,63 132,64 129,64 128,65 123,65 122,66 117,66 116,67 97,67 96,66 92,66 91,65 87,65 86,64 84,64 83,63 81,63 80,62 79,62 78,61 76,61 75,60 73,60 72,59 71,59 70,58 68,58 67,57 65,57 64,56 62,56 61,55 59,55 58,54 55,54 54,53 51,53 50,52 46,52 45,51 26,51 25,52 20,52 19,53 15,53 14,54 11,54 10,55 8,55 7,56 5,56 5,91 364,91 364,28 Z" fill="#9d69b4" stroke="none" /></svg>